<svg t="1716189018241" class="icon" viewBox="0 0 1024 1024" version="1.1" xmlns="http://www.w3.org/2000/svg" p-id="4069" width="200" height="200"><path d="M1024.4096 736.0512v18.432c-1.024 5.9392-1.8432 11.8784-2.8672 17.8176-16.1792 92.7744-89.2928 154.2144-183.7056 154.2144H13.7216c-4.5056 0-8.8064-0.2048-13.312-0.4096v-55.0912c2.8672-1.024 5.7344-2.2528 8.6016-3.072 65.9456-21.9136 103.0144-88.4736 85.1968-155.4432-12.9024-48.7424-45.6704-78.848-93.7984-92.9792v-55.0912c4.7104-0.4096 9.4208-1.024 14.1312-1.024H821.6576c9.8304 0 19.6608 0.2048 29.4912 0.6144 80.4864 3.6864 149.0944 60.6208 167.1168 139.0592 2.6624 11.0592 4.096 22.1184 6.144 32.9728zM1024.4096 82.1248V137.216c-2.6624 0.8192-5.12 1.6384-7.7824 2.4576-66.9696 21.2992-105.472 91.3408-86.016 158.1056 13.9264 47.5136 46.08 77.4144 93.5936 90.9312v55.0912c-5.12 0.2048-10.24 0.4096-15.36 0.4096H181.248c-83.7632 0-156.0576-57.1392-175.5136-139.264-2.2528-9.4208-3.8912-19.2512-5.7344-28.672v-26.624c0.6144-1.6384 1.4336-3.072 1.6384-4.7104 12.288-96.6656 86.8352-163.2256 184.1152-163.2256h823.296c5.12 0 10.24 0.2048 15.36 0.4096z" p-id="4070"></path></svg>