<svg t="1714988404387" class="icon" viewBox="0 0 1024 1024" version="1.1" xmlns="http://www.w3.org/2000/svg" p-id="2835" width="200" height="200"><path d="M75.52 120.661333a31.957333 31.957333 0 0 1 31.146667-24.661333h725.333333c4.949333 0 9.856 1.152 14.336 3.413333L832 128l14.336-28.586667h0.128l0.128 0.128 0.426667 0.213334 1.194666 0.597333 3.712 2.133333c3.029333 1.749333 7.125333 4.352 11.946667 7.722667 9.557333 6.826667 22.144 17.066667 34.730667 31.189333 25.386667 28.586667 50.730667 73.216 50.730666 135.936s-25.344 107.306667-50.773333 135.936a205.738667 205.738667 0 0 1-46.634667 38.912l-3.712 2.133334-1.194666 0.597333-0.426667 0.213333-0.128 0.085334-0.085333 0.042666h-0.042667L832 426.666667l14.336 28.586666a32.170667 32.170667 0 0 1-14.336 3.413334h-725.333333a31.957333 31.957333 0 0 1-14.506667-60.544l0.213333-0.085334a102.826667 102.826667 0 0 0 9.130667-5.802666 142.08 142.08 0 0 0 23.893333-21.504c17.28-19.370667 34.602667-49.450667 34.602667-93.397334s-17.322667-74.026667-34.56-93.44a142.08 142.08 0 0 0-31.36-26.282666 23.381333 23.381333 0 0 0-1.706667-0.981334L92.16 156.586667a31.957333 31.957333 0 0 1-16.64-35.882667z m112.426667 39.338667c19.626667 28.117333 36.053333 66.858667 36.053333 117.333333s-16.426667 89.216-36.053333 117.333334h635.306666a142.08 142.08 0 0 0 27.52-23.893334c17.237333-19.413333 34.56-49.493333 34.56-93.44s-17.322667-74.026667-34.56-93.44a142.08 142.08 0 0 0-27.52-23.893333H187.946667z m-95.573334 238.08h-0.085333 0.042667zM177.706667 568.746667a31.829333 31.829333 0 0 1 14.293333-3.413334h725.333333a31.957333 31.957333 0 0 1 14.506667 60.501334l-0.213333 0.128L917.333333 597.333333l14.336 28.586667h0.085334v-0.042667l-0.128 0.085334-1.706667 0.981333c-1.706667 0.981333-4.224 2.56-7.424 4.821333a143.786667 143.786667 0 0 0-23.893333 21.504c-17.28 19.370667-34.602667 49.450667-34.602667 93.397334s17.322667 74.026667 34.56 93.44a143.786667 143.786667 0 0 0 31.36 26.282666l1.706667 0.981334 0.170666 0.085333h-0.042666l-0.042667-0.042667h-0.042667s0.128 0 0.170667 0.085334a31.957333 31.957333 0 0 1-14.506667 60.501333h-725.333333a31.829333 31.829333 0 0 1-14.293333-3.413333L192 896l-14.336 28.586667H177.493333l-0.128-0.128-0.426666-0.213334-1.194667-0.597333a174.933333 174.933333 0 0 1-15.616-9.813333 205.781333 205.781333 0 0 1-34.773333-31.232c-25.386667-28.586667-50.730667-73.216-50.730667-135.936s25.344-107.306667 50.773333-135.936a205.781333 205.781333 0 0 1 46.634667-38.912l3.712-2.133334 1.194667-0.597333 0.426666-0.213333 0.128-0.085334 0.085334-0.042666h0.042666L192 597.333333l-14.293333-28.586666z m23.04 60.586666a143.786667 143.786667 0 0 0-27.52 23.893334c-17.237333 19.413333-34.56 49.493333-34.56 93.44s17.322667 74.026667 34.56 93.44a143.786667 143.786667 0 0 0 27.52 23.893333h635.306666c-19.626667-28.117333-36.053333-66.858667-36.053333-117.333333s16.426667-89.216 36.053333-117.333334H200.746667z m5.802666 238.165334z" p-id="2836"></path></svg>