<svg t="1716189069375" class="icon" viewBox="0 0 1024 1024" version="1.1" xmlns="http://www.w3.org/2000/svg" p-id="6210" width="200" height="200"><path d="M512 465.066667c-25.6 0-46.933333 21.333333-46.933333 46.933333s21.333333 46.933333 46.933333 46.933333c25.6 0 46.933333-21.333333 46.933333-46.933333S537.6 465.066667 512 465.066667zM512 85.333333C277.333333 85.333333 85.333333 277.333333 85.333333 512c0 234.666667 192 426.666667 426.666667 426.666667 234.666667 0 426.666667-192 426.666667-426.666667C938.666667 277.333333 746.666667 85.333333 512 85.333333zM605.866667 605.866667 256 768l162.133333-349.866667L768 256 605.866667 605.866667z" p-id="6211"></path></svg>